<?xml version="1.0" standalone="no"?>
<!DOCTYPE svg PUBLIC "-//W3C//DTD SVG 20010904//EN"
 "http://www.w3.org/TR/2001/REC-SVG-20010904/DTD/svg10.dtd">
<svg version="1.0" xmlns="http://www.w3.org/2000/svg"
 width="529.000000pt" height="529.000000pt" viewBox="0 0 529.000000 529.000000"
 preserveAspectRatio="xMidYMid meet">
<metadata>
Created by potrace 1.14, written by Peter Selinger 2001-2017
</metadata>
<g transform="translate(0.000000,529.000000) scale(0.100000,-0.100000)"
fill="#000000" stroke="none">
<path d="M2291 5227 c-18 -10 -413 -307 -1766 -1328 -132 -99 -252 -193 -267
-207 -31 -29 -34 -59 -18 -172 5 -36 11 -90 15 -120 7 -64 8 -72 35 -295 11
-93 22 -183 25 -200 7 -51 71 -576 96 -785 11 -99 58 -473 63 -511 2 -14 16
-131 31 -260 15 -128 32 -247 38 -263 7 -19 24 -35 51 -46 53 -23 752 -320
876 -372 52 -22 156 -66 230 -98 74 -32 223 -95 330 -140 107 -45 256 -108
330 -140 74 -32 237 -101 363 -154 l228 -97 47 33 c92 62 387 282 952 709 179
135 492 371 695 524 204 153 377 285 385 294 9 9 15 33 14 65 0 50 -12 185
-19 229 -2 12 -9 63 -15 112 -6 50 -13 104 -15 120 -4 30 -11 89 -21 175 -3
25 -9 77 -14 115 -10 75 -14 107 -30 243 -6 48 -13 103 -15 122 -11 90 -36
290 -41 330 -3 25 -7 61 -9 80 -3 19 -11 87 -19 150 -8 63 -18 140 -21 170 -3
30 -8 73 -11 95 -3 22 -7 56 -9 75 -2 19 -7 53 -9 75 -9 69 -35 286 -45 373
-7 62 -14 87 -28 97 -10 8 -79 39 -153 70 -74 32 -270 115 -435 185 -534 227
-827 352 -955 405 -69 29 -280 119 -470 200 -190 80 -357 148 -371 150 -15 2
-36 -2 -48 -8z"/>
</g>
</svg>
